<?xml version="1.0" encoding="utf-8"?>
<svg xmlns="http://www.w3.org/2000/svg" fill="currentColor" viewBox="0 0 32 32"><title>docker</title><path d="M30.679 13.367a3.95 3.95 0 0 0-2.451-.636l.012-.001a7.7 7.7 0 0 0-1.306.115l.046-.007a4.72 4.72 0 0 0-2.122-3.191l-.019-.011-.429-.248-.282.408a5.7 5.7 0 0 0-.756 1.745l-.008.039c-.089.324-.14.696-.14 1.08 0 .831.24 1.605.654 2.258l-.01-.017a5.8 5.8 0 0 1-2.164.524H1.962a.937.937 0 0 0-.936.933l-.001.19c0 1.751.317 3.428.897 4.977l-.032-.098a7.56 7.56 0 0 0 2.98 3.881l.028.017c1.744.903 3.808 1.432 5.995 1.432q.31 0 .617-.014l-.029.001h.06a19.7 19.7 0 0 0 3.72-.352l-.123.02a15.2 15.2 0 0 0 4.845-1.773l-.074.039a13.2 13.2 0 0 0 3.245-2.652l.012-.014a18.1 18.1 0 0 0 3.145-5.365l.041-.125h.276a4.57 4.57 0 0 0 3.346-1.261l-.002.002a3.65 3.65 0 0 0 .873-1.281l.009-.024.122-.359zM3.79 14.849h2.646a.23.23 0 0 0 .23-.231v-2.356a.23.23 0 0 0-.23-.231H3.79a.23.23 0 0 0-.23.231v2.357c0 .127.103.23.23.23m3.644 0h2.644a.23.23 0 0 0 .231-.231v-2.356a.23.23 0 0 0-.23-.231H7.433a.23.23 0 0 0-.232.232v2.355a.23.23 0 0 0 .232.231zm3.698 0h2.646a.23.23 0 0 0 .23-.231v-2.356a.23.23 0 0 0-.23-.231h-2.646a.23.23 0 0 0-.23.231v2.356c0 .127.103.231.231.231zm3.656 0h2.643a.23.23 0 0 0 .232-.231v-2.355a.23.23 0 0 0-.232-.232h-2.643a.23.23 0 0 0-.231.231v2.357c0 .127.103.23.23.23zm-7.354-3.388h2.644a.23.23 0 0 0 .231-.232V8.874a.23.23 0 0 0-.231-.231H7.434a.23.23 0 0 0-.232.231v2.355a.233.233 0 0 0 .232.232m3.698 0h2.646a.23.23 0 0 0 .23-.232V8.874a.23.23 0 0 0-.231-.231h-2.643a.23.23 0 0 0-.231.231v2.355a.233.233 0 0 0 .231.232zm3.656 0h2.643a.233.233 0 0 0 .232-.232V8.874a.23.23 0 0 0-.232-.231h-2.643a.23.23 0 0 0-.231.231v2.355c0 .128.103.231.231.232m0-3.388h2.643a.23.23 0 0 0 .232-.232V5.485a.23.23 0 0 0-.232-.231h-2.643a.23.23 0 0 0-.231.231v2.357c0 .127.103.23.23.23zm3.687 6.776h2.644a.23.23 0 0 0 .232-.231v-2.355a.23.23 0 0 0-.232-.232h-2.644a.23.23 0 0 0-.231.231v2.356c0 .127.103.231.231.231"/></svg>